<svg width="30" height="30" viewBox="0 0 30 30" fill="none" xmlns="http://www.w3.org/2000/svg">
<path d="M25.3125 0H4.6875C2.09867 0 0 2.09867 0 4.6875V25.3125C0 27.9013 2.09867 30 4.6875 30H25.3125C27.9013 30 30 27.9013 30 25.3125V4.6875C30 2.09867 27.9013 0 25.3125 0Z" fill="black" style="fill:black;fill-opacity:1;"/>
<path fill-rule="evenodd" clip-rule="evenodd" d="M14.9771 7.67999C10.8486 7.67999 7.5 11.0286 7.5 15.1571C7.5 18.4598 9.65596 21.258 12.5917 22.2671C12.9587 22.313 13.0963 22.0837 13.0963 21.9002C13.0963 21.7167 13.0963 21.258 13.0963 20.6158C11.0321 21.0745 10.5734 19.6066 10.5734 19.6066C10.2523 18.735 9.74771 18.5057 9.74771 18.5057C9.05963 18.047 9.79358 18.047 9.79358 18.047C10.5275 18.0928 10.9404 18.8268 10.9404 18.8268C11.6284 19.9736 12.6835 19.6525 13.0963 19.469C13.1422 18.9644 13.3716 18.6433 13.555 18.4598C11.9037 18.2763 10.1606 17.6341 10.1606 14.7442C10.1606 13.9185 10.4358 13.2763 10.9404 12.7259C10.8945 12.5882 10.6193 11.8084 11.0321 10.7993C11.0321 10.7993 11.6743 10.6158 13.0963 11.5791C13.6927 11.3956 14.3349 11.3497 14.9771 11.3497C15.6193 11.3497 16.2615 11.4415 16.8578 11.5791C18.2798 10.6158 18.922 10.7993 18.922 10.7993C19.3349 11.8084 19.0596 12.5882 19.0138 12.7717C19.4725 13.2763 19.7936 13.9644 19.7936 14.7901C19.7936 17.68 18.0505 18.2763 16.3991 18.4598C16.6743 18.6892 16.9037 19.1479 16.9037 19.836C16.9037 20.8451 16.9037 21.6249 16.9037 21.9002C16.9037 22.0837 17.0413 22.313 17.4083 22.2671C20.3899 21.258 22.5 18.4598 22.5 15.1571C22.4541 11.0286 19.1055 7.67999 14.9771 7.67999Z" fill="white" style="fill:white;fill-opacity:1;"/>
</svg>
